<?xml version="1.0" encoding="UTF-8" standalone="no"?>
<!DOCTYPE svg PUBLIC "-//W3C//DTD SVG 1.1//EN"
 "http://www.w3.org/Graphics/SVG/1.1/DTD/svg11.dtd">
<!-- Generated by graphviz version 12.2.1 (20241206.2353)
 -->
<!-- Pages: 1 -->
<svg width="720pt" height="85pt"
 viewBox="0.00 0.00 720.00 85.38" xmlns="http://www.w3.org/2000/svg" xmlns:xlink="http://www.w3.org/1999/xlink">
<g id="graph0" class="graph" transform="scale(0.735462 0.735462) rotate(0) translate(4 112.09)">
<polygon fill="white" stroke="none" points="-4,4 -4,-112.09 974.98,-112.09 974.98,4 -4,4"/>
<!-- acquire -->
<g id="node1" class="node">
<title>acquire</title>
<ellipse fill="#e69f00" stroke="black" cx="92.3" cy="-51.09" rx="92.3" ry="18"/>
<text text-anchor="middle" x="92.3" y="-46.04" font-family="Times,serif" font-size="14.00">Customer Acquisition</text>
</g>
<!-- signup -->
<g id="node2" class="node">
<title>signup</title>
<polygon fill="#56b4e9" stroke="black" points="275.84,-69.09 221.59,-69.09 221.59,-33.09 275.84,-33.09 275.84,-69.09"/>
<text text-anchor="middle" x="248.72" y="-46.04" font-family="Times,serif" font-size="14.00">Signup</text>
</g>
<!-- acquire&#45;&gt;signup -->
<g id="edge1" class="edge">
<title>acquire&#45;&gt;signup</title>
<path fill="none" stroke="black" d="M184.91,-51.09C193.6,-51.09 202.04,-51.09 209.77,-51.09"/>
<polygon fill="black" stroke="black" points="209.75,-54.59 219.75,-51.09 209.75,-47.59 209.75,-54.59"/>
</g>
<!-- subscribe -->
<g id="node3" class="node">
<title>subscribe</title>
<polygon fill="#9e79b7" stroke="black" points="431.59,-69.09 312.84,-69.09 312.84,-33.09 431.59,-33.09 431.59,-69.09"/>
<text text-anchor="middle" x="372.22" y="-46.04" font-family="Times,serif" font-size="14.00">Subscription Starts</text>
</g>
<!-- signup&#45;&gt;subscribe -->
<g id="edge2" class="edge">
<title>signup&#45;&gt;subscribe</title>
<path fill="none" stroke="black" d="M276.08,-51.09C283.64,-51.09 292.25,-51.09 301.14,-51.09"/>
<polygon fill="black" stroke="black" points="300.98,-54.59 310.97,-51.09 300.97,-47.59 300.98,-54.59"/>
</g>
<!-- support -->
<g id="node4" class="node">
<title>support</title>
<polygon fill="#f0e442" stroke="black" points="585.37,-69.09 468.59,-51.09 585.37,-33.09 702.14,-51.09 585.37,-69.09"/>
<text text-anchor="middle" x="585.37" y="-46.04" font-family="Times,serif" font-size="14.00">Support Interaction</text>
</g>
<!-- subscribe&#45;&gt;support -->
<g id="edge3" class="edge">
<title>subscribe&#45;&gt;support</title>
<path fill="none" stroke="black" d="M432.03,-51.09C439.17,-51.09 446.66,-51.09 454.33,-51.09"/>
<polygon fill="black" stroke="black" points="454.17,-54.59 464.17,-51.09 454.17,-47.59 454.17,-54.59"/>
</g>
<!-- churn -->
<g id="node5" class="node">
<title>churn</title>
<ellipse fill="#d55e00" stroke="black" cx="895.06" cy="-90.09" rx="33.95" ry="18"/>
<text text-anchor="middle" x="895.06" y="-85.04" font-family="Times,serif" font-size="14.00">Churn</text>
</g>
<!-- subscribe&#45;&gt;churn -->
<g id="edge6" class="edge">
<title>subscribe&#45;&gt;churn</title>
<path fill="none" stroke="black" stroke-dasharray="5,2" d="M430.49,-69.55C442.94,-72.92 456.11,-76.03 468.59,-78.09 606.07,-100.81 771.87,-96.57 849.67,-92.76"/>
<polygon fill="black" stroke="black" points="849.62,-96.27 859.43,-92.26 849.26,-89.27 849.62,-96.27"/>
<text text-anchor="middle" x="585.37" y="-97.42" font-family="Times,serif" font-size="10.00">Silent Churn</text>
</g>
<!-- retain -->
<g id="node6" class="node">
<title>retain</title>
<ellipse fill="#0072b2" stroke="black" cx="895.06" cy="-30.09" rx="75.92" ry="18"/>
<text text-anchor="middle" x="895.06" y="-25.04" font-family="Times,serif" font-size="14.00">Active / Retained</text>
</g>
<!-- subscribe&#45;&gt;retain -->
<g id="edge7" class="edge">
<title>subscribe&#45;&gt;retain</title>
<path fill="none" stroke="black" stroke-width="2" d="M409.81,-32.6C427.16,-24.84 448.45,-16.73 468.59,-12.84 591.25,10.84 737.36,-4.26 822.52,-17.26"/>
<polygon fill="black" stroke="black" stroke-width="2" points="820.45,-20.48 830.88,-18.56 821.54,-13.56 820.45,-20.48"/>
<text text-anchor="middle" x="585.37" y="-14.59" font-family="Times,serif" font-size="10.00">Healthy Usage</text>
</g>
<!-- support&#45;&gt;churn -->
<g id="edge4" class="edge">
<title>support&#45;&gt;churn</title>
<path fill="none" stroke="black" d="M651.62,-59.36C711.48,-66.95 798.49,-77.98 850.36,-84.55"/>
<polygon fill="black" stroke="black" points="849.64,-87.99 860,-85.77 850.52,-81.04 849.64,-87.99"/>
<text text-anchor="middle" x="760.64" y="-79.22" font-family="Times,serif" font-size="10.00">Poor Experience</text>
</g>
<!-- support&#45;&gt;retain -->
<g id="edge5" class="edge">
<title>support&#45;&gt;retain</title>
<path fill="none" stroke="black" d="M668.82,-45.46C712.63,-42.47 766.35,-38.8 810.35,-35.8"/>
<polygon fill="black" stroke="black" points="810.35,-39.31 820.09,-35.14 809.88,-32.33 810.35,-39.31"/>
<text text-anchor="middle" x="760.64" y="-43.6" font-family="Times,serif" font-size="10.00">Resolved / Satisfied</text>
</g>
</g>
</svg>
